<svg width="843" height="798" viewBox="0 0 843 798" fill="none" xmlns="http://www.w3.org/2000/svg">
<path d="M105.529 603.702C120.692 579.072 138.084 555.886 157.486 534.436C159.313 532.382 161.17 530.354 163.028 528.328C162.891 528.285 162.765 528.211 162.66 528.113C162.556 528.014 162.475 527.893 162.423 527.759C150.96 500.374 152.15 468.603 160.105 440.44C164.491 425.258 170.598 410.627 178.305 396.832C186.303 383.055 195.034 369.717 204.463 356.876C214.753 342.174 224.862 325.794 224.173 307.177C224.105 305.323 226.829 304.51 227.468 306.425C247.547 366.544 229.175 431.068 197.129 483.373C190.324 494.48 182.91 505.192 175.092 515.604C189.081 501.316 203.823 487.785 219.256 475.069C222.234 472.614 225.239 470.193 228.271 467.804C228.272 467.623 228.318 467.446 228.403 467.287C228.489 467.129 228.612 466.993 228.763 466.893C230.759 465.461 232.788 464.073 234.836 462.712C252.703 449.021 271.394 436.441 290.804 425.041C301.945 418.504 313.304 412.363 324.777 406.435C324.634 406.347 324.515 406.225 324.431 406.08C324.346 405.935 324.299 405.772 324.293 405.604C321.667 375.253 331.46 344.245 343.434 316.743C355.983 287.92 372.357 261.113 387.108 233.422C395.545 217.584 403.181 200.256 400.971 181.896C400.734 179.929 403.427 179.525 404.188 181.161C417.809 211.275 421.384 244.97 414.385 277.272C411.034 293.35 405.18 308.803 397.039 323.067C388.565 337.356 377.954 350.265 365.575 361.345C352.233 373.695 337.582 386.069 330.807 403.348C346.438 395.394 362.247 387.779 378.004 380.102C412.915 363.091 447.676 345.667 482.945 329.406L482.958 329.403C482.688 329.036 482.407 328.687 482.156 328.29C475.812 318.251 482.198 306.067 489.681 298.33C486.764 292.928 484.193 287.347 481.985 281.619C475.275 264.343 471.998 245.925 472.337 227.395C473.19 186.77 493.598 151.533 515.564 118.647C528.63 99.0866 542.287 79.8548 553.245 58.9904C553.389 58.7017 553.605 58.4549 553.872 58.2738C554.139 58.0927 554.448 57.9835 554.769 57.9566C555.091 57.9297 555.414 57.9861 555.707 58.1203C556.001 58.2545 556.254 58.462 556.444 58.7229C573.643 82.8426 582.102 112.107 580.424 141.683C608.588 125.682 640.53 117.532 672.918 118.082C677.869 118.167 682.811 118.451 687.742 118.933C688.099 119.005 688.428 119.179 688.688 119.434C688.948 119.689 689.128 120.014 689.207 120.37C689.286 120.725 689.259 121.096 689.132 121.437C689.004 121.778 688.779 122.074 688.486 122.29C673.889 132.823 668.819 151.294 667.177 168.383C665.152 189.477 667.589 211.04 659.981 231.275C670.754 232.391 681.51 233.838 692.295 234.663C714.147 236.336 737.453 235.27 756.729 223.725C757.033 223.527 757.387 223.42 757.75 223.419C758.112 223.417 758.468 223.519 758.774 223.714C759.08 223.909 759.323 224.188 759.475 224.517C759.626 224.847 759.68 225.213 759.628 225.572C757.816 249.436 755.737 274.081 745.538 296.084C736.993 314.089 723.118 329.032 705.795 338.886C704.765 339.485 703.71 339.998 702.67 340.564C722.418 348.61 741.73 357.987 760.995 367.079C761.315 367.243 761.581 367.495 761.761 367.805C761.942 368.116 762.029 368.472 762.013 368.831C761.997 369.189 761.878 369.536 761.671 369.829C761.464 370.123 761.176 370.35 760.843 370.485C725.703 386.974 687.165 394.931 648.368 393.705C612.746 392.574 575.571 384.44 545.336 364.859C533.833 357.671 523.765 348.409 515.644 337.545C505.205 338.849 492.11 339.358 484.449 331.203C484.326 331.478 484.114 331.704 483.846 331.843C453.325 347.538 422.289 362.264 391.453 377.328C361.803 391.813 331.856 405.833 303.054 421.973C289.062 429.814 275.438 438.251 262.182 447.283C282.528 437.705 304.079 430.932 326.246 427.151C343.79 424.121 361.609 422.98 379.397 423.748C398.233 424.911 416.924 427.788 435.237 432.344C457.231 437.362 479.776 442.429 502.375 438.536C502.739 438.51 503.101 438.603 503.408 438.801C503.714 439 503.948 439.292 504.074 439.634C504.2 439.976 504.211 440.35 504.106 440.7C504.002 441.049 503.786 441.355 503.493 441.572C444.238 477.45 372.622 482.192 305.367 473.555C284.233 470.842 263.348 466.828 242.588 462.067C242.341 462.009 242.113 461.888 241.926 461.717C214.999 481.817 189.953 504.322 167.097 528.954C145.389 552.798 125.43 578.178 107.377 604.896C106.672 605.919 104.879 604.781 105.529 603.702ZM555.102 63.3437C536.512 97.745 510.809 127.831 493.311 162.864C484.362 180.023 478.677 198.695 476.545 217.929C474.896 236.386 476.994 254.986 482.714 272.612C488.028 288.378 495.924 303.151 506.08 316.329C505.985 316.01 505.918 315.692 505.828 315.372C489.835 291.755 483.045 260.338 489.614 232.486C489.626 232.428 489.66 232.377 489.708 232.344C489.757 232.311 489.817 232.299 489.875 232.309C489.933 232.319 489.984 232.351 490.019 232.399C490.053 232.447 490.068 232.506 490.059 232.564C487.567 247.364 487.987 262.507 491.295 277.146C493.957 288.048 498.25 298.485 504.03 308.104C503.042 303.665 502.222 299.191 501.675 294.675C500.457 284.428 500.326 274.08 501.286 263.805C503.269 242.906 509.41 222.613 519.347 204.12C529.284 185.626 542.817 169.306 559.15 156.116C564.944 151.479 571.044 147.239 577.409 143.424C577.185 143.234 577.01 142.995 576.895 142.725C576.781 142.456 576.732 142.163 576.751 141.871C578.345 114.029 570.737 86.4358 555.102 63.3437ZM656.561 229.845C664.556 208.742 661.151 185.916 663.93 163.979C665.875 148.623 670.987 132.791 682.658 122.264C644.56 119.484 606.585 129.103 574.403 149.684C540.118 171.965 516.084 206.95 507.587 246.946C503.771 264.808 503.38 283.231 506.434 301.239C506.263 299.836 506.119 298.449 505.999 297.137C505.576 292.483 505.618 287.798 506.122 283.151C507.079 273.608 510.192 264.406 515.225 256.241C515.491 255.816 516.189 256.112 515.949 256.586C511.685 264.828 508.967 273.783 507.932 283.006C507.452 287.643 507.45 292.317 507.927 296.954C508.327 299.959 508.912 302.936 509.68 305.868C515.909 271.293 533.241 239.692 559.049 215.857C566.784 208.589 575.376 202.293 584.637 197.107C584.95 196.937 585.271 197.358 584.963 197.574C569.599 207.918 555.894 220.535 544.316 234.992C533.028 249.466 524.247 265.731 518.34 283.109C515.581 291.339 513.51 299.784 512.148 308.356C528.035 281.98 549.819 258.48 577.101 243.959C592.792 235.517 610.178 230.702 627.977 229.868C637.5 229.564 647.033 229.924 656.507 230.947C656.411 230.583 656.43 230.198 656.561 229.845ZM698.254 338.77L698.259 338.773C713.049 331.454 725.751 320.516 735.184 306.975C748.138 287.806 752.289 264.38 754.537 241.784C754.974 237.388 755.333 232.984 755.676 228.578C721.062 247.173 680.4 235.459 643.312 233.65C624.187 232.384 605.03 235.611 587.375 243.073C571.333 250.324 556.758 260.458 544.375 272.97C531.061 286.314 519.619 301.403 510.364 317.825C510.609 318.481 510.888 319.116 511.172 319.746C513.716 319.452 516.438 319.738 518.982 319.618C522.057 319.473 525.12 319.175 528.17 318.725C534.327 317.827 540.38 316.327 546.244 314.247C557.666 309.86 568.341 303.733 577.891 296.082C577.958 296.038 578.039 296.019 578.118 296.029C578.198 296.04 578.272 296.078 578.326 296.137C578.38 296.196 578.411 296.273 578.413 296.353C578.416 296.434 578.39 296.512 578.339 296.575C569.569 305.5 558.853 312.275 547.029 316.37C541.305 318.498 535.392 320.079 529.369 321.092C526.172 321.625 522.949 321.991 519.714 322.19C517.347 322.43 514.966 322.509 512.589 322.428C512.607 322.457 512.62 322.489 512.638 322.518C513.341 323.596 514.203 324.561 515.194 325.381C515.46 325.263 515.754 325.222 516.042 325.262C541.464 328.771 567.295 327.974 592.453 322.905C617.832 317.595 642.655 309.912 666.596 299.956C680.206 294.505 693.638 288.608 706.984 282.542C707.105 282.487 707.171 282.676 707.055 282.734C660.408 305.707 610.971 326.938 558.425 330.261C546.752 331.045 535.032 330.792 523.403 329.506C524.365 329.83 525.329 330.141 526.277 330.447C538.204 334.309 550.148 338.134 562.215 341.536C604.461 353.447 650.301 359.958 691.8 341.834C693.223 341.211 694.617 340.518 696.016 339.839C696.081 339.614 696.193 339.406 696.345 339.227C696.496 339.049 696.684 338.904 696.895 338.803C697.107 338.702 697.337 338.647 697.571 338.642C697.805 338.636 698.038 338.68 698.254 338.77ZM543.994 353.181C538.76 350.589 533.74 347.583 528.984 344.191C526.699 342.574 524.207 340.845 521.844 338.962C527.997 346.525 535.142 353.223 543.087 358.876C557.005 368.463 572.375 375.749 588.608 380.453C624.496 391.012 662.359 393.014 699.161 386.298C718.676 382.794 737.684 376.894 755.754 368.733C736.822 359.902 717.605 351.656 698.758 342.665C660.913 361.519 617.098 359.053 576.763 349.212C564.026 346.104 551.46 342.339 538.961 338.389C533.18 336.561 527.376 334.773 521.637 332.814C519.281 332.051 517.022 331.017 514.904 329.732C515.089 330.002 515.285 330.26 515.471 330.529C515.647 330.459 515.838 330.434 516.026 330.456C516.214 330.478 516.393 330.546 516.549 330.654C521.21 333.888 525.154 338.239 529.773 341.606C534.768 345.211 540.027 348.436 545.505 351.254C556.18 356.597 567.492 360.562 579.168 363.051C579.203 363.059 579.233 363.08 579.253 363.109C579.273 363.139 579.28 363.175 579.274 363.21C579.268 363.245 579.248 363.277 579.22 363.298C579.191 363.319 579.155 363.328 579.12 363.324C566.882 362.159 554.969 358.719 543.994 353.181ZM513.826 334.88C511.494 331.338 509.503 327.582 507.88 323.664C507.84 323.551 507.818 323.433 507.815 323.314C501.105 316.357 495.344 308.544 490.681 300.078C485.025 307.954 478.282 318.116 484.616 327.232C491.137 336.617 503.62 335.937 513.826 334.88ZM356.09 365.67C368.266 354.393 380.126 343.265 389.355 329.344C407.46 301.596 416.215 268.786 414.343 235.707C413.741 224.987 411.963 214.366 409.041 204.035C413.209 258.571 384.886 312.433 352.354 354.298C342.773 366.627 331.564 380.359 330.378 396.392C336.497 384.473 346.27 374.766 356.09 365.67ZM326.709 405.446C326.71 405.317 326.725 405.188 326.755 405.063C327.085 404.045 327.443 403.043 327.827 402.056C326.776 387.421 334.244 374.405 342.606 362.931C351.829 350.274 361.672 338.207 370.097 324.968C386.544 299.123 399.641 270.523 404.958 240.198C407.459 225.844 408.073 211.225 406.785 196.711C406.104 194.709 405.39 192.718 404.622 190.744C404.14 202.634 400.189 214.157 395.099 224.951C388.368 239.225 380.138 252.818 372.508 266.619C357.336 294.065 342.447 322.208 333.881 352.531C329.174 369.762 326.709 387.529 326.546 405.391C326.538 405.443 326.528 405.495 326.514 405.546L326.709 405.446ZM445.274 438.006C426.745 433.972 408.426 429.36 389.482 427.701C353.799 424.692 317.887 429.453 284.221 441.655C271.584 446.253 259.336 451.856 247.593 458.408C279.939 452.98 312.255 447.584 345.188 448.186C376.132 448.751 406.973 453.095 437.955 451.868C454.633 451.423 471.154 448.517 486.983 443.244C472.927 443.075 458.936 441.317 445.274 438.006ZM451.316 461.274C466.311 456.63 480.793 450.47 494.537 442.889C493.33 442.99 492.123 443.07 490.916 443.128C491.023 443.297 491.091 443.488 491.114 443.686C491.138 443.885 491.116 444.086 491.051 444.275C490.986 444.464 490.879 444.636 490.738 444.778C490.597 444.92 490.426 445.029 490.238 445.096C461.377 455.713 430.384 455.645 400.087 453.887C384.154 452.963 368.245 451.584 352.292 451.03C335.421 450.461 318.532 451.101 301.753 452.947C284.527 454.82 267.406 457.652 250.354 460.745C316.534 474.202 385.747 481.721 451.316 461.274ZM213.927 348.789C205.426 362.279 195.41 374.725 187.093 388.345C170.851 414.944 158.857 444.757 157.241 476.16C156.45 492.638 158.604 509.125 163.603 524.847C169.566 513.131 172.141 500.254 174.623 487.442C177.08 474.574 180.3 461.864 184.264 449.377C192.732 422.918 202.4 396.805 211.558 370.577C216.745 355.72 221.898 340.851 227.147 326.016C227.201 325.831 227.294 325.66 227.42 325.515C227.545 325.37 227.701 325.254 227.876 325.175C228.051 325.096 228.242 325.056 228.434 325.058C228.626 325.059 228.815 325.103 228.989 325.185C228.404 322.367 227.724 319.57 226.984 316.786C225.281 328.24 220.154 338.907 213.927 348.789ZM232.45 357.35C232.337 347.744 231.405 338.165 229.665 328.718C220.705 354.718 211.567 380.657 202.506 406.621C193.403 432.706 183.671 458.568 178.381 485.76C176.708 495.625 174.371 505.365 171.385 514.914C205.84 469.212 233.153 415.802 232.45 357.35Z" fill="#EAB4A9"/>
<path d="M292.225 609.164C292.133 609.112 292.052 609.042 291.989 608.958C288.261 608.755 284.542 608.524 280.831 608.266C266.293 607.267 251.754 605.894 237.238 604.846C246.995 608.536 255.929 614.115 263.527 621.262C277.331 633.517 289.575 647.553 302.618 660.573C310.888 668.81 319.326 676.875 328.086 684.544C328.397 684.77 328.618 685.099 328.708 685.473C328.798 685.847 328.751 686.241 328.577 686.583C328.402 686.926 328.111 687.195 327.755 687.342C327.4 687.489 327.004 687.504 326.638 687.385C291.948 676.225 264.47 651.2 240.421 624.725C234.758 618.476 229.244 612.069 223.947 605.512C223.727 605.511 223.525 605.493 223.323 605.475C223.124 605.475 222.928 605.433 222.747 605.351C222.566 605.269 222.404 605.15 222.273 605.001C222.141 604.852 222.043 604.676 221.985 604.486C221.926 604.296 221.909 604.096 221.934 603.899C204.388 602.808 186.782 603.165 169.296 604.967C167.224 605.212 165.165 605.509 163.106 605.806C188.145 608.423 208.939 629.619 227.42 645.209C235.232 652.134 243.937 657.979 253.304 662.59C253.657 662.73 253.95 662.991 254.129 663.327C254.308 663.663 254.362 664.051 254.281 664.423C254.2 664.795 253.99 665.125 253.687 665.356C253.385 665.587 253.01 665.703 252.63 665.684C242.677 665.484 232.762 664.396 223.003 662.434C212.701 659.805 202.973 655.295 194.31 649.131C177.929 638.263 159.213 626.584 148.398 609.537C148.222 609.582 148.044 609.618 147.864 609.643C147.579 609.722 147.275 609.701 147.004 609.582C146.733 609.463 146.512 609.253 146.378 608.99C133.895 611.93 121.807 616.348 110.37 622.151C106.311 624.224 103.42 617.858 107.418 615.712C125.301 606.508 144.717 600.654 164.708 598.438C164.741 598.441 164.762 598.392 164.814 598.379C165.364 598.291 165.92 598.136 166.472 598.014C174.529 582.594 191.557 575.353 206.69 568.457C225.722 559.779 244.765 551.101 263.82 542.425C274.594 537.543 285.37 532.637 296.149 527.709C296.505 527.559 296.904 527.54 297.273 527.655C297.643 527.77 297.959 528.013 298.167 528.34C298.374 528.667 298.459 529.056 298.407 529.44C298.354 529.823 298.167 530.176 297.88 530.434C270.375 559.472 235.893 580.982 197.718 592.914C193.051 594.375 188.349 595.647 183.625 596.782C194.194 596.253 204.783 596.268 215.2 596.709C231.411 597.362 247.559 598.941 263.701 600.587C269.239 582.544 284.083 569.37 299.54 559.519C318.382 547.538 339.607 539.168 355.809 523.417C357.121 522.157 358.722 524.024 357.995 525.384C341.16 556.769 314.528 581.791 282.155 596.638C278.504 598.305 274.742 599.879 270.925 601.312C283.424 602.559 295.942 603.791 308.484 604.534C308.506 604.485 308.494 604.433 308.533 604.369C316.349 587.217 333.701 577.987 349.261 568.891C368.053 557.888 386.856 546.886 405.671 535.884C406.865 535.191 408.044 536.851 407.346 537.876C385.939 569.767 352.616 595.021 315.248 604.897C319.079 605.075 322.895 605.235 326.72 605.293C334.268 605.402 341.803 605.273 349.314 604.819C349.396 604.598 349.529 604.4 349.703 604.242C362.223 593.461 378.391 586.163 393.933 581.013C410.1 575.819 426.787 572.411 443.696 570.851C453.25 569.896 462.816 569.399 472.408 569.192C473.988 569.142 474.333 571.629 472.929 572.186C441.095 584.894 412.94 609.171 377.526 611.319C369.287 612.018 360.996 610.857 353.266 607.922C336.57 609.772 319.753 610.293 302.974 609.481C330.369 619.571 352.069 640.658 374.633 658.617C381.889 664.492 389.482 669.939 397.373 674.93C397.652 675.134 397.858 675.422 397.96 675.752C398.062 676.082 398.055 676.436 397.939 676.761C397.823 677.087 397.605 677.366 397.318 677.558C397.03 677.749 396.689 677.843 396.344 677.824C361.558 672.587 329.742 655.229 306.509 628.815C301.056 622.796 296.267 616.208 292.225 609.164Z" fill="#94C9B7"/>
</svg>
