<svg width="120" height="25" viewBox="0 0 120 25" fill="none" xmlns="http://www.w3.org/2000/svg">
<g clip-path="url(#clip0_786_21142)">
<path d="M49.3629 22.9006V21.5769C49.3629 21.0694 48.9426 20.7385 48.2222 20.7385C47.8621 20.7385 47.4719 20.8267 47.2017 21.1136C46.9917 20.8709 46.6917 20.7385 46.2414 20.7385C45.9412 20.7385 45.6412 20.8046 45.401 21.0474V20.7826H44.7708V22.9006H45.401V21.7313C45.401 21.3563 45.6712 21.1797 46.0915 21.1797C46.5115 21.1797 46.7217 21.3783 46.7217 21.7313V22.9006H47.352V21.7313C47.352 21.3563 47.652 21.1797 48.0422 21.1797C48.4624 21.1797 48.6724 21.3783 48.6724 21.7313V22.9006H49.3629ZM58.6968 20.7826H57.6765V20.1428H57.0462V20.7826H56.4759V21.2017H57.046V22.1726C57.046 22.658 57.3162 22.9447 58.0366 22.9447C58.3067 22.9447 58.6067 22.8786 58.817 22.7904L58.6368 22.3932C58.4567 22.4814 58.2467 22.5035 58.0966 22.5035C57.7965 22.5035 57.6765 22.3712 57.6765 22.1505V21.2017H58.6968V20.7826ZM64.0392 20.7384C63.6791 20.7384 63.439 20.8709 63.2889 21.0474V20.7826H62.6586V22.9006H63.2889V21.7093C63.2889 21.3563 63.4989 21.1577 63.8891 21.1577C64.0091 21.1577 64.1593 21.1798 64.2793 21.2018L64.4593 20.7606C64.3393 20.7385 64.1592 20.7385 64.0392 20.7385M55.9657 20.9592C55.6655 20.8047 55.2453 20.7386 54.7951 20.7386C54.0749 20.7386 53.5947 21.0033 53.5947 21.4225C53.5947 21.7756 53.9548 21.9741 54.5851 22.0403L54.8852 22.0624C55.2154 22.1064 55.3954 22.1727 55.3954 22.283C55.3954 22.4374 55.1554 22.5478 54.7351 22.5478C54.3148 22.5478 53.9848 22.4374 53.7746 22.3272L53.4745 22.6801C53.8047 22.8566 54.2549 22.9448 54.705 22.9448C55.5454 22.9448 56.0257 22.6581 56.0257 22.2609C56.0257 21.8858 55.6355 21.6873 55.0352 21.6211L54.7351 21.599C54.4649 21.5769 54.2549 21.5329 54.2549 21.4005C54.2549 21.246 54.4649 21.1578 54.7951 21.1578C55.1554 21.1578 55.5155 21.2681 55.6955 21.3343L55.9657 20.9592ZM72.7131 20.7386C72.3528 20.7386 72.1127 20.871 71.9626 21.0475V20.7827H71.3323V22.9007H71.9626V21.7094C71.9626 21.3564 72.1727 21.1578 72.5628 21.1578C72.683 21.1578 72.8331 21.1799 72.9531 21.2019L73.1332 20.7607C73.0132 20.7386 72.8331 20.7386 72.7131 20.7386ZM64.6695 21.8417C64.6695 22.4815 65.2697 22.9448 66.2002 22.9448C66.6203 22.9448 66.9204 22.8787 67.2205 22.7022L66.9204 22.3272C66.6803 22.4595 66.4403 22.5256 66.1701 22.5256C65.6599 22.5256 65.2998 22.2609 65.2998 21.8417C65.2998 21.4446 65.6599 21.1798 66.1701 21.1578C66.4403 21.1578 66.6803 21.2239 66.9204 21.3564L67.2205 20.9813C66.9204 20.8047 66.6203 20.7386 66.2002 20.7386C65.2697 20.7386 64.6695 21.2019 64.6695 21.8417ZM70.4921 21.8417V20.7827H69.8618V21.0475C69.6517 20.849 69.3516 20.7386 68.9614 20.7386C68.151 20.7386 67.5208 21.2019 67.5208 21.8417C67.5208 22.4815 68.151 22.9448 68.9614 22.9448C69.3815 22.9448 69.6817 22.8346 69.8618 22.636V22.9007H70.4921V21.8417ZM68.181 21.8417C68.181 21.4666 68.5111 21.1578 69.0513 21.1578C69.5616 21.1578 69.9218 21.4446 69.9218 21.8417C69.9218 22.2168 69.5616 22.5256 69.0513 22.5256C68.5111 22.5035 68.181 22.2168 68.181 21.8417ZM60.6478 20.7386C59.8074 20.7386 59.207 21.1798 59.207 21.8417C59.207 22.5036 59.8072 22.9448 60.6777 22.9448C61.0978 22.9448 61.5181 22.8566 61.8483 22.6581L61.5481 22.3272C61.308 22.4595 61.0079 22.5478 60.7078 22.5478C60.3176 22.5478 59.9274 22.4154 59.8373 22.0402H61.9683V21.8638C61.9984 21.1798 61.4582 20.7386 60.6478 20.7386ZM60.6476 21.1357C61.0377 21.1357 61.308 21.3123 61.3679 21.6432H59.8672C59.9273 21.3564 60.1974 21.1357 60.6476 21.1357ZM76.2844 21.8417V19.9443H75.6542V21.0475C75.444 20.849 75.1439 20.7386 74.7537 20.7386C73.9434 20.7386 73.3131 21.2019 73.3131 21.8417C73.3131 22.4815 73.9434 22.9448 74.7537 22.9448C75.174 22.9448 75.4741 22.8346 75.6542 22.636V22.9007H76.2844V21.8417ZM73.9735 21.8417C73.9735 21.4666 74.3035 21.1578 74.8438 21.1578C75.3541 21.1578 75.7142 21.4446 75.7142 21.8417C75.7142 22.2168 75.3541 22.5256 74.8438 22.5256C74.3035 22.5035 73.9735 22.2168 73.9735 21.8417ZM52.9042 21.8417V20.7827H52.2739V21.0475C52.0637 20.849 51.7636 20.7386 51.3734 20.7386C50.5631 20.7386 49.9328 21.2019 49.9328 21.8417C49.9328 22.4815 50.5631 22.9448 51.3734 22.9448C51.7937 22.9448 52.0938 22.8346 52.2739 22.636V22.9007H52.9042V21.8417ZM50.5631 21.8417C50.5631 21.4666 50.8933 21.1578 51.4335 21.1578C51.9437 21.1578 52.304 21.4446 52.304 21.8417C52.304 22.2168 51.9437 22.5256 51.4335 22.5256C50.8933 22.5035 50.5631 22.2168 50.5631 21.8417Z" fill="black"/>
<path d="M55.7556 4.69879H65.2097V17.1863H55.7556V4.69879Z" fill="#FF5F00"/>
<path d="M56.3559 10.9426C56.3559 8.40543 57.9766 6.15498 60.4676 4.69879C58.6369 3.6398 56.326 3 53.8049 3C47.8321 3 43 6.55206 43 10.9426C43 15.3332 47.8321 18.8852 53.8047 18.8852C56.3258 18.8852 58.6368 18.2454 60.4676 17.1863C57.9766 15.7523 56.3559 13.4798 56.3559 10.9426Z" fill="#EB001B"/>
<path d="M77.9652 10.9426C77.9652 15.3331 73.1331 18.8852 67.1604 18.8852C64.6393 18.8852 62.3284 18.2454 60.4976 17.1863C63.0187 15.7303 64.6094 13.4798 64.6094 10.9426C64.6094 8.40543 62.9886 6.15498 60.4976 4.69879C62.3282 3.6398 64.6393 3 67.1604 3C73.1331 3 77.9652 6.57417 77.9652 10.9426Z" fill="#F79E1B"/>
</g>
<g clip-path="url(#clip1_786_21142)">
<path d="M7.34164 2.36914H16.0613C17.2785 2.36914 18.0355 3.27627 17.7517 4.39289L13.692 20.3285C13.4055 21.4413 12.1867 22.3491 10.9688 22.3491H2.24982C1.03439 22.3491 0.275604 21.4413 0.559569 20.3285L4.62094 4.39289C4.9049 3.27627 6.12293 2.36914 7.34164 2.36914Z" fill="#E21836"/>
<path d="M15.3359 2.36914H25.3634C26.5803 2.36914 26.0316 3.27627 25.7454 4.39289L21.6862 20.3285C21.4015 21.4413 21.4903 22.3491 20.2707 22.3491H10.2434C9.02383 22.3491 8.26914 21.4413 8.55557 20.3285L12.6143 4.39289C12.9025 3.27627 14.1181 2.36914 15.3359 2.36914Z" fill="#00447C"/>
<path d="M24.9656 2.36914H33.6853C34.9043 2.36914 35.6613 3.27627 35.3751 4.39289L31.3159 20.3285C31.0295 21.4413 29.81 22.3491 28.5911 22.3491H19.8756C18.6561 22.3491 17.8996 21.4413 18.1853 20.3285L22.2449 4.39289C22.5289 3.27627 23.7461 2.36914 24.9656 2.36914Z" fill="#007B84"/>
<path d="M9.61896 7.47615C8.72236 7.48453 8.45754 7.47615 8.37291 7.4579C8.34037 7.59915 7.73525 10.1512 7.73361 10.1533C7.60332 10.6695 7.50857 11.0377 7.18646 11.2753C7.00381 11.4134 6.79039 11.4802 6.54293 11.4802C6.14535 11.4802 5.91361 11.2995 5.87479 10.9572L5.86727 10.8397C5.86727 10.8397 5.9884 10.148 5.9884 10.1442C5.9884 10.1442 6.62346 7.81853 6.73721 7.51115C6.74322 7.49365 6.74486 7.48453 6.74637 7.47615C5.51029 7.48615 5.29113 7.47615 5.27609 7.4579C5.26775 7.4829 5.23713 7.62715 5.23713 7.62715L4.58867 10.2484L4.53303 10.4707L4.42529 11.1978C4.42529 11.4134 4.47164 11.5895 4.56379 11.7384C4.85924 12.2104 5.70197 12.2812 6.17871 12.2812C6.79285 12.2812 7.36912 12.1618 7.7585 11.9439C8.4343 11.5789 8.61121 11.0082 8.76885 10.5009L8.84199 10.2408C8.84199 10.2408 9.49619 7.8254 9.60734 7.51115C9.61145 7.49365 9.61322 7.48453 9.61896 7.47615ZM11.8447 9.42465C11.6871 9.42465 11.399 9.45965 11.1401 9.57565C11.0462 9.61978 10.9573 9.67065 10.8635 9.7214L10.9481 9.44215L10.9018 9.39515C10.3529 9.49678 10.23 9.5104 9.72287 9.57565L9.68049 9.60153C9.62156 10.0478 9.5692 10.3834 9.351 11.2608C9.26739 11.5853 9.18208 11.9095 9.09506 12.2333L9.1183 12.2742C9.63811 12.2492 9.79574 12.2492 10.2475 12.2559L10.284 12.2197C10.3414 11.9509 10.3488 11.8879 10.4759 11.3435C10.5357 11.0855 10.6602 10.5185 10.7216 10.3167C10.8344 10.2688 10.9458 10.2218 11.0521 10.2218C11.3053 10.2218 11.2744 10.4237 11.2646 10.5042C11.2537 10.6392 11.1616 11.0803 11.067 11.459L11.0038 11.7034C10.9599 11.884 10.9116 12.0594 10.8676 12.2384L10.8868 12.2742C11.3989 12.2492 11.5552 12.2492 11.9925 12.2559L12.0439 12.2197C12.1231 11.7999 12.1462 11.6875 12.2865 11.0764L12.357 10.7957C12.4942 10.246 12.5631 9.9674 12.4593 9.7404C12.3496 9.48603 12.0863 9.42465 11.8447 9.42465ZM14.3315 10C14.0592 10.0479 13.8855 10.0797 13.713 10.1003C13.542 10.1253 13.375 10.1482 13.112 10.1815L13.0911 10.1988L13.0719 10.2125C13.0446 10.3918 13.0254 10.5467 12.9891 10.7288C12.9583 10.917 12.9109 11.131 12.8338 11.4384C12.774 11.6737 12.7433 11.7557 12.7092 11.8384C12.676 11.9213 12.6395 12.0018 12.5724 12.2332L12.5881 12.2545L12.6012 12.2742C12.8472 12.2635 13.0081 12.2559 13.1734 12.2545C13.3385 12.2492 13.5097 12.2545 13.7744 12.2558L13.7976 12.2387L13.8225 12.2195C13.8608 12.0108 13.8664 11.9547 13.8898 11.8529C13.913 11.7437 13.9529 11.5925 14.051 11.1887C14.0973 10.999 14.1489 10.8099 14.197 10.6164C14.2469 10.4237 14.2991 10.2339 14.3489 10.0442L14.3415 10.0213L14.3315 10ZM14.3373 9.22428C14.0898 9.09078 13.6557 9.13315 13.3634 9.31753C13.0721 9.49828 13.0388 9.75478 13.2855 9.89003C13.5286 10.0198 13.9644 9.98115 14.2541 9.79515C14.5449 9.61053 14.5813 9.3564 14.3373 9.22428ZM15.8334 12.316C16.3339 12.316 16.847 12.1898 17.2332 11.8157C17.5303 11.5122 17.6666 11.0605 17.7138 10.8745C17.8673 10.2582 17.7477 9.9704 17.5976 9.79515C17.3693 9.5279 16.9658 9.44215 16.5473 9.44215C16.2958 9.44215 15.6964 9.4649 15.2281 9.85965C14.8918 10.1443 14.7365 10.5307 14.6428 10.9009C14.5482 11.2784 14.4394 11.9577 15.1227 12.2105C15.3335 12.2933 15.6375 12.316 15.8334 12.316ZM15.7943 10.9292C15.9097 10.4624 16.046 10.0707 16.3937 10.0707C16.6661 10.0707 16.686 10.3622 16.5648 10.8304C16.5431 10.9344 16.4437 11.3209 16.3092 11.4854C16.2151 11.6069 16.1041 11.6805 15.981 11.6805C15.9445 11.6805 15.7271 11.6805 15.7237 11.3854C15.7221 11.2397 15.7546 11.0908 15.7943 10.9292ZM18.9649 12.256L19.004 12.2197C19.0595 11.9509 19.0687 11.8878 19.1915 11.3437C19.253 11.0855 19.3801 10.5187 19.4397 10.3167C19.5528 10.2687 19.6623 10.2217 19.772 10.2217C20.0234 10.2217 19.9928 10.4235 19.9828 10.504C19.9736 10.6393 19.8813 11.0802 19.7851 11.4589L19.7254 11.7033C19.6797 11.884 19.6299 12.0593 19.5859 12.2385L19.605 12.2743C20.1191 12.2493 20.2692 12.2493 20.7092 12.256L20.7624 12.2197C20.8395 11.7997 20.8604 11.6874 21.0049 11.0764L21.0737 10.7955C21.2115 10.2459 21.2812 9.96753 21.1791 9.74053C21.0663 9.48615 20.8015 9.42478 20.5632 9.42478C20.4053 9.42478 20.1157 9.45953 19.8582 9.57578C19.7662 9.61978 19.6739 9.67053 19.5834 9.72153L19.6623 9.44228L19.6199 9.39503C19.0712 9.49678 18.9459 9.5104 18.4394 9.57578L18.4004 9.60153C18.339 10.0479 18.2891 10.3833 18.0709 11.2609C17.9873 11.5854 17.902 11.9095 17.8151 12.2333L17.8384 12.2743C18.3588 12.2493 18.5142 12.2493 18.9649 12.256ZM22.7408 12.2742C22.7731 12.1299 22.965 11.2754 22.9667 11.2754C22.9667 11.2754 23.1301 10.6483 23.1402 10.6255C23.1402 10.6255 23.1916 10.5603 23.243 10.5344H23.3186C24.0325 10.5344 24.8388 10.5344 25.4705 10.1094C25.9005 9.8179 26.1945 9.38753 26.3256 8.8644C26.3596 8.73615 26.3846 8.58365 26.3846 8.43115C26.3846 8.23078 26.3408 8.03253 26.2136 7.87765C25.8914 7.46553 25.2497 7.4579 24.509 7.45478L24.144 7.4579C23.1958 7.46865 22.8156 7.46553 22.6593 7.44803C22.6462 7.51115 22.6213 7.62353 22.6213 7.62353C22.6213 7.62353 22.2817 9.06265 22.2817 9.0649L21.4306 12.2689C22.2585 12.2598 22.5979 12.2598 22.7408 12.2742ZM23.3701 9.71765C23.3701 9.71765 23.7311 8.2814 23.7294 8.2869L23.7412 8.21315L23.7463 8.15715L23.8906 8.17065C23.8906 8.17065 24.6353 8.22915 24.6527 8.23065C24.9466 8.33465 25.0678 8.60265 24.9833 8.9524C24.906 9.27215 24.6794 9.5409 24.3879 9.67065C24.1479 9.78065 23.854 9.78978 23.5512 9.78978H23.3552L23.3701 9.71765ZM25.6183 10.9558C25.5229 11.3277 25.4133 12.007 26.0932 12.2492C26.31 12.3334 26.5043 12.3585 26.7016 12.3494C26.9102 12.3392 27.1034 12.2435 27.2823 12.1059L27.2338 12.2758L27.2647 12.312C27.7538 12.2933 27.9055 12.2933 28.4353 12.297L28.4834 12.2635C28.5607 11.8477 28.6337 11.4439 28.8348 10.6483C28.9327 10.2673 29.0304 9.8899 29.1309 9.5104L29.1152 9.46865C28.5682 9.56128 28.422 9.58115 27.8957 9.64928L27.8557 9.67903C27.8504 9.71778 27.8448 9.7549 27.8397 9.79203C27.758 9.67115 27.6393 9.5679 27.4564 9.50365C27.2223 9.4194 26.6727 9.5279 26.2004 9.92115C25.8683 10.202 25.7088 10.5868 25.6183 10.9558ZM26.7673 10.9785C26.8845 10.52 27.0189 10.1323 27.3675 10.1323C27.5879 10.1323 27.704 10.3182 27.6803 10.6353C27.6601 10.721 27.6392 10.8066 27.6174 10.892C27.5826 11.0283 27.5448 11.1633 27.5081 11.2985C27.4706 11.391 27.427 11.4783 27.3793 11.5364C27.2896 11.6527 27.0762 11.7247 26.9533 11.7247C26.9184 11.7247 26.7033 11.7247 26.696 11.4347C26.6942 11.2904 26.7267 11.1418 26.7673 10.9785ZM32.7674 9.46478L32.725 9.42065C32.1837 9.5209 32.0857 9.5369 31.5884 9.59828L31.5518 9.63165C31.5502 9.63715 31.5487 9.6454 31.5461 9.65303L31.5444 9.64553C31.1742 10.4265 31.185 10.258 30.8836 10.8728C30.8819 10.8448 30.8819 10.8274 30.8802 10.7977L30.8048 9.46478L30.7575 9.42065C30.1904 9.5209 30.177 9.5369 29.6533 9.59828L29.6124 9.63165C29.6067 9.64765 29.6067 9.66515 29.6033 9.68415L29.6067 9.69103C29.6722 9.99678 29.6565 9.92853 29.7221 10.4113C29.7527 10.6482 29.7936 10.8864 29.8241 11.1204C29.8758 11.5119 29.9047 11.7047 29.9678 12.3023C29.6142 12.8358 29.5304 13.0378 29.1898 13.506L29.1923 13.5107L28.9525 13.8574C28.9252 13.8939 28.9003 13.9189 28.8654 13.9297C28.8271 13.9469 28.7774 13.95 28.7083 13.95H28.5754L28.378 14.5505L29.0555 14.5612C29.453 14.5597 29.703 14.3897 29.8375 14.1612L30.2635 13.4938H30.2567L30.3015 13.4468C30.5881 12.8829 32.7674 9.46478 32.7674 9.46478ZM25.6183 17.3508H25.331L26.3946 14.1345H26.7474L26.8595 13.8033L26.8701 14.1717C26.857 14.3994 27.0529 14.6013 27.5677 14.5679H28.1631L28.3679 13.9487H28.1439C28.0152 13.9487 27.9553 13.9189 27.9628 13.8552L27.952 13.4803H26.8496V13.4823C26.4932 13.489 25.4287 13.5135 25.2132 13.566C24.9525 13.6273 24.6777 13.8082 24.6777 13.8082L24.7857 13.4764H23.7545L23.5395 14.1345L22.4618 17.3999H22.2526L22.0475 18.0148H24.1014L24.0327 18.2198H25.0447L25.1119 18.0148H25.3958L25.6183 17.3508ZM24.7756 14.788C24.6104 14.8298 24.3032 14.9565 24.3032 14.9565L24.5765 14.1345H25.3958L25.1982 14.7334C25.1982 14.7334 24.945 14.7472 24.7757 14.788M24.7915 15.9623C24.7915 15.9623 24.5342 15.9919 24.3648 16.0268C24.198 16.073 23.885 16.2188 23.885 16.2188L24.1673 15.3634H24.9908L24.7915 15.9623ZM24.3324 17.3583H23.5105L23.7488 16.6364H24.5681L24.3324 17.3583ZM26.3116 15.3634H27.4963L27.3261 15.8675H26.1257L25.9455 16.4185H26.9959L26.2005 17.4424C26.1448 17.5177 26.0949 17.5443 26.0394 17.5654C25.9838 17.5913 25.9106 17.6217 25.8262 17.6217H25.5347L25.3345 18.2252H26.0966C26.4928 18.2252 26.7269 18.0604 26.8995 17.8442L27.445 17.1617L27.5621 17.8547C27.587 17.9844 27.6889 18.0604 27.758 18.0899C27.8343 18.1249 27.9132 18.1849 28.0246 18.1939C28.1439 18.1985 28.2302 18.2023 28.2876 18.2023H28.6622L28.887 17.5268H28.7394C28.6546 17.5268 28.5084 17.5138 28.4837 17.4895C28.4587 17.4599 28.4587 17.4145 28.4454 17.3453L28.3265 16.6508H27.84L28.0534 16.4185H29.2515L29.4358 15.8675H28.3266L28.4993 15.3634H29.6052L29.8103 14.7418H26.5134L26.3116 15.3634ZM16.3059 17.4987L16.5823 16.6577H17.7189L17.9264 16.0322H16.7889L16.9625 15.5145H18.0741L18.2801 14.9088H15.4988L15.2972 15.5145H15.9291L15.7605 16.032H15.127L14.917 16.6683H15.5486L15.18 17.781C15.1304 17.9283 15.2034 17.9844 15.2497 18.0529C15.2972 18.1195 15.3452 18.1637 15.4532 18.1887C15.5646 18.2114 15.6409 18.225 15.7445 18.225H17.0257L17.254 17.532L16.6861 17.6034C16.5764 17.6034 16.2727 17.5914 16.3059 17.4987ZM16.4362 13.4727L16.1482 13.9485C16.0867 14.0524 16.0311 14.117 15.9812 14.1467C15.9371 14.1717 15.8499 14.1823 15.7237 14.1823H15.5735L15.3726 14.791H15.8717C16.1117 14.791 16.2959 14.7107 16.3839 14.6704C16.4786 14.6242 16.5034 14.6505 16.5764 14.586L16.745 14.4525H18.3033L18.5102 13.8188H17.3694L17.5686 13.4725L16.4362 13.4727ZM18.7367 17.5109C18.7102 17.4759 18.7294 17.4143 18.77 17.286L19.1958 15.9972H20.7111C20.9319 15.9943 21.0912 15.9919 21.1951 15.9852C21.3064 15.9744 21.4275 15.938 21.5594 15.8728C21.6957 15.8044 21.7655 15.7323 21.8243 15.6495C21.8899 15.567 21.9954 15.3862 22.0859 15.1075L22.6213 13.4764L21.0491 13.4848C21.0491 13.4848 20.5648 13.55 20.3517 13.6223C20.1366 13.7027 19.8293 13.9273 19.8293 13.9273L19.9712 13.4802H18.9999L17.6401 17.6034C17.5919 17.7634 17.5595 17.8797 17.5521 17.9495C17.5496 18.0247 17.6558 18.0992 17.7247 18.1553C17.8061 18.2114 17.9264 18.2023 18.0418 18.2114C18.1632 18.2198 18.3357 18.225 18.574 18.225H19.3205L19.5495 17.5177L18.8814 17.5754C18.8099 17.5754 18.7583 17.5404 18.7367 17.5109ZM19.4706 15.1267H21.062L20.9609 15.4165C20.9468 15.4233 20.9128 15.4022 20.7507 15.4197H19.3726L19.4706 15.1267ZM19.7895 14.1542H21.3944L21.2789 14.5034C21.2789 14.5034 20.5226 14.4967 20.4014 14.517C19.8682 14.6014 19.5569 14.8618 19.5569 14.8618L19.7895 14.1542ZM20.9967 16.3874C20.9834 16.4308 20.9625 16.4572 20.9335 16.477C20.9011 16.496 20.8488 16.5028 20.7708 16.5028H20.5442L20.5576 16.1498H19.6142L19.5759 17.8759C19.5746 18.0004 19.5877 18.0725 19.6873 18.1303C19.7871 18.2023 20.0942 18.2115 20.5077 18.2115H21.0987L21.312 17.5653L20.7975 17.5912L20.6263 17.6003C20.6031 17.5912 20.5807 17.5828 20.5558 17.5602C20.5342 17.5405 20.4975 17.5525 20.5036 17.428L20.5077 16.9855L21.0471 16.9652C21.3386 16.9652 21.4632 16.8784 21.5694 16.7959C21.6707 16.7168 21.7039 16.6259 21.7422 16.5028L21.8327 16.111H21.0912L20.9967 16.3874Z" fill="#FEFEFE"/>
</g>
<path d="M102.601 9.49571C102.581 11.7157 104.004 12.9544 105.076 13.691C106.178 14.4467 106.548 14.9313 106.543 15.6071C106.535 16.6414 105.665 17.0978 104.85 17.1156C103.429 17.1466 102.603 16.5747 101.946 16.1421L101.435 19.5192C102.094 19.9474 103.314 20.3208 104.579 20.3372C107.549 20.3372 109.492 18.2699 109.503 15.0647C109.515 10.9968 105.512 10.7717 105.54 8.95345C105.549 8.40212 105.922 7.81378 106.74 7.66419C107.145 7.58863 108.262 7.5308 109.528 8.35316L110.025 5.08569C109.344 4.736 108.469 4.40116 107.379 4.40116C104.583 4.40116 102.617 6.49658 102.601 9.49571ZM114.802 4.6826C114.26 4.6826 113.803 5.12867 113.599 5.8132L109.356 20.0972H112.324L112.915 17.7957H116.541L116.884 20.0972H119.5L117.217 4.6826H114.802ZM115.217 8.84665L116.074 14.635H113.728L115.217 8.84665ZM99.0026 4.6828L96.663 20.097H99.4913L101.83 4.68241L99.0026 4.6828ZM94.8186 4.6828L91.8747 15.1744L90.6839 6.25349C90.5442 5.25764 89.9924 4.6826 89.3796 4.6826H84.5674L84.5 5.13022C85.4879 5.43248 86.6104 5.92 87.2904 6.44164C87.7066 6.76029 87.8253 7.03884 87.962 7.79605L90.2174 20.0972H93.2063L97.7885 4.6826L94.8186 4.6828Z" fill="url(#paint0_linear_786_21142)"/>
<defs>
<linearGradient id="paint0_linear_786_21142" x1="1693.59" y1="52.3048" x2="1758.58" y2="-1583.06" gradientUnits="userSpaceOnUse">
<stop stop-color="#222357"/>
<stop offset="1" stop-color="#254AA5"/>
</linearGradient>
<clipPath id="clip0_786_21142">
<rect width="35" height="20" fill="white" transform="translate(43 3)"/>
</clipPath>
<clipPath id="clip1_786_21142">
<rect width="35" height="20" fill="white" transform="translate(0.5 2.36914)"/>
</clipPath>
</defs>
</svg>