<svg width="587" height="817" viewBox="0 0 587 817" fill="none" xmlns="http://www.w3.org/2000/svg">
<g opacity="0.3" clip-path="url(#clip0_780_179)">
<path d="M718.223 631.348C704.552 605.859 688.57 581.68 670.478 559.114C668.777 556.955 667.044 554.82 665.309 552.687C665.449 552.652 665.579 552.586 665.689 552.494C665.8 552.402 665.888 552.286 665.947 552.155C679.019 525.501 679.72 493.715 673.455 465.128C669.979 449.713 664.754 434.745 657.88 420.516C650.717 406.287 642.794 392.453 634.146 379.074C624.748 363.786 615.631 346.834 617.426 328.291C617.605 326.445 614.934 325.471 614.182 327.344C590.563 386.163 605.065 451.665 633.943 505.784C640.075 517.276 646.839 528.41 654.023 539.269C640.909 524.173 626.998 509.789 612.349 496.178C609.522 493.551 606.666 490.954 603.782 488.39C603.791 488.21 603.757 488.03 603.68 487.866C603.604 487.703 603.489 487.56 603.345 487.452C601.437 485.903 599.494 484.397 597.531 482.916C580.51 468.187 562.6 454.517 543.903 441.983C533.171 434.795 522.196 427.99 511.097 421.389C511.245 421.31 511.371 421.196 511.464 421.056C511.556 420.916 511.613 420.756 511.629 420.589C516.056 390.447 508.125 358.912 497.807 330.746C486.995 301.228 472.244 273.495 459.166 244.975C451.686 228.664 445.095 210.912 448.393 192.716C448.746 190.766 446.083 190.203 445.226 191.791C429.838 221.041 424.265 254.465 429.33 287.125C431.719 303.374 436.643 319.148 443.921 333.871C451.53 348.639 461.355 362.156 473.053 373.952C485.637 387.074 499.525 400.298 505.261 417.949C490.131 409.08 474.803 400.538 459.53 391.937C425.692 372.88 392.03 353.419 357.79 335.089L357.778 335.086C358.069 334.735 358.371 334.403 358.644 334.022C365.574 324.379 359.924 311.836 352.915 303.668C356.148 298.449 359.046 293.03 361.591 287.444C369.317 270.598 373.683 252.407 374.447 233.89C376.012 193.286 357.736 156.897 337.765 122.764C325.885 102.46 313.397 82.4502 303.699 60.971C303.572 60.6742 303.371 60.415 303.116 60.2183C302.86 60.0217 302.558 59.8943 302.239 59.8483C301.919 59.8023 301.594 59.8394 301.293 59.9559C300.992 60.0725 300.726 60.2645 300.521 60.5136C281.918 83.5676 271.733 112.277 271.65 141.901C244.487 124.253 213.086 114.217 180.723 112.84C175.775 112.631 170.826 112.62 165.874 112.808C165.514 112.859 165.176 113.013 164.901 113.252C164.626 113.491 164.427 113.804 164.327 114.155C164.227 114.505 164.231 114.877 164.339 115.224C164.446 115.572 164.652 115.882 164.932 116.115C178.877 127.497 182.839 146.237 183.461 163.394C184.229 184.57 180.514 205.95 186.904 226.602C176.084 227.075 165.261 227.88 154.446 228.062C132.533 228.432 109.332 225.982 90.7771 213.311C90.4856 213.095 90.1381 212.968 89.7761 212.944C89.4142 212.921 89.0531 213.002 88.7362 213.178C88.4192 213.355 88.1598 213.619 87.9889 213.939C87.8181 214.259 87.743 214.621 87.7727 214.983C88.1622 238.911 88.7721 263.637 97.6439 286.208C105.103 304.689 118.064 320.43 134.771 331.297C135.763 331.957 136.786 332.532 137.791 333.159C117.599 340.016 97.7635 348.227 77.9917 356.157C77.6628 356.302 77.3824 356.538 77.1838 356.837C76.9852 357.136 76.8767 357.486 76.8714 357.845C76.866 358.204 76.9639 358.558 77.1535 358.863C77.3432 359.168 77.6164 359.412 77.9408 359.566C112.038 378.117 150.035 388.351 188.836 389.435C224.462 390.425 262.055 384.517 293.401 366.768C305.311 360.277 315.912 351.631 324.665 341.269C335.008 343.191 348.05 344.478 356.183 336.794C356.288 337.076 356.487 337.314 356.746 337.468C386.279 354.95 416.385 371.497 446.27 388.368C475.006 404.591 504.067 420.368 531.857 438.192C545.358 446.851 558.456 456.083 571.151 465.888C551.412 455.117 530.301 447.074 508.399 441.981C491.065 437.913 473.346 435.714 455.544 435.423C436.672 435.464 417.843 437.224 399.291 440.683C377.038 444.384 354.232 448.1 331.904 442.87C331.542 442.823 331.175 442.894 330.857 443.074C330.54 443.253 330.289 443.531 330.143 443.865C329.997 444.2 329.963 444.572 330.047 444.927C330.131 445.282 330.327 445.6 330.608 445.834C387.623 485.174 458.83 494.166 526.48 489.546C547.738 488.094 568.824 485.329 589.831 481.811C590.081 481.768 590.316 481.661 590.513 481.501C616.197 503.167 639.86 527.122 661.21 553.07C681.462 578.163 699.875 604.685 716.308 632.43C716.951 633.493 718.808 632.464 718.223 631.348ZM301.586 65.2061C318.097 100.652 341.966 132.214 357.348 168.226C365.261 185.887 369.825 204.863 370.809 224.191C371.358 242.713 368.157 261.155 361.399 278.41C355.157 293.831 346.396 308.109 335.475 320.66C335.587 320.347 335.673 320.033 335.782 319.719C353.152 297.095 361.799 266.137 356.898 237.944C356.89 237.885 356.859 237.833 356.812 237.797C356.765 237.761 356.707 237.745 356.648 237.752C356.59 237.758 356.536 237.788 356.499 237.833C356.462 237.879 356.444 237.937 356.449 237.996C358.057 252.917 356.737 268.009 352.563 282.425C349.258 293.149 344.351 303.313 338.009 312.571C339.26 308.199 340.345 303.781 341.16 299.306C342.985 289.149 343.731 278.828 343.384 268.514C342.647 247.533 337.724 226.911 328.905 207.859C320.085 188.808 307.547 171.711 292.027 157.574C286.52 152.6 280.683 148.004 274.556 143.818C274.79 143.642 274.98 143.414 275.11 143.151C275.24 142.889 275.306 142.599 275.304 142.306C275.37 114.419 284.605 87.3273 301.586 65.2061ZM190.403 225.378C183.678 203.836 188.434 181.254 186.965 159.191C185.937 143.745 181.776 127.638 170.752 116.435C208.948 115.926 246.283 127.787 277.184 150.246C310.083 174.526 331.993 210.878 338.097 251.309C340.843 269.367 340.138 287.781 336.018 305.575C336.272 304.184 336.498 302.809 336.697 301.506C337.395 296.885 337.633 292.206 337.405 287.538C337.018 277.954 334.458 268.584 329.92 260.134C329.679 259.694 328.964 259.948 329.176 260.435C332.943 268.916 335.122 278.017 335.607 287.285C335.811 291.942 335.534 296.608 334.783 301.209C334.205 304.184 333.443 307.121 332.502 310.002C328.341 275.118 312.919 242.543 288.575 217.214C281.286 209.499 273.083 202.703 264.148 196.976C263.845 196.788 263.499 197.189 263.794 197.422C278.516 208.663 291.446 222.072 302.143 237.192C312.551 252.312 320.348 269.07 325.211 286.769C327.476 295.149 329.042 303.702 329.891 312.34C315.601 285.065 295.254 260.311 268.884 244.193C253.722 234.833 236.654 228.993 218.936 227.101C209.447 226.231 199.91 226.024 190.392 226.482C190.509 226.124 190.513 225.738 190.403 225.378ZM142.306 331.631L142.301 331.633C127.972 323.447 115.943 311.773 107.332 297.695C95.5409 277.789 92.7912 254.159 91.8912 231.469C91.716 227.054 91.6199 222.636 91.5393 218.218C124.986 238.838 166.273 229.565 203.402 229.964C222.569 229.838 241.5 234.199 258.68 242.698C274.262 250.89 288.209 261.873 299.826 275.1C312.323 289.212 322.846 304.955 331.108 321.897C330.825 322.539 330.509 323.155 330.188 323.767C327.666 323.322 324.932 323.446 322.399 323.175C319.338 322.847 316.299 322.368 313.281 321.737C307.189 320.475 301.235 318.618 295.505 316.192C284.364 311.133 274.072 304.382 264.995 296.177C264.93 296.129 264.851 296.106 264.771 296.111C264.691 296.116 264.615 296.15 264.557 296.206C264.5 296.262 264.464 296.337 264.457 296.417C264.45 296.497 264.471 296.577 264.518 296.642C272.741 306.073 283.036 313.474 294.595 318.264C300.183 320.729 305.991 322.659 311.943 324.028C315.103 324.751 318.298 325.308 321.516 325.699C323.865 326.079 326.236 326.3 328.614 326.361C328.594 326.388 328.579 326.42 328.559 326.447C327.794 327.482 326.876 328.394 325.837 329.153C325.579 329.019 325.289 328.961 324.999 328.984C299.413 330.975 273.674 328.643 248.863 322.086C223.845 315.276 199.523 306.13 176.216 294.768C162.955 288.517 149.897 281.832 136.936 274.983C136.818 274.92 136.741 275.106 136.854 275.17C182.052 300.877 230.138 325.01 282.393 331.453C293.999 332.93 305.713 333.375 317.398 332.783C316.418 333.048 315.437 333.301 314.473 333.551C302.338 336.697 290.188 339.804 277.939 342.483C235.06 351.86 188.913 355.633 148.566 335.072C147.182 334.367 145.833 333.591 144.476 332.831C144.424 332.603 144.325 332.388 144.184 332.2C144.043 332.013 143.865 331.858 143.66 331.744C143.455 331.631 143.228 331.562 142.995 331.543C142.762 331.523 142.527 331.553 142.306 331.631ZM295.435 355.191C300.815 352.914 306.004 350.212 310.954 347.11C313.331 345.632 315.921 344.053 318.392 342.315C311.8 349.498 304.269 355.76 296.002 360.929C281.539 369.672 265.762 376.031 249.279 379.762C212.826 388.167 174.91 387.913 138.573 379.02C119.301 374.361 100.678 367.342 83.1256 358.12C102.548 350.431 122.222 343.343 141.571 335.488C178.227 356.56 222.111 356.704 262.96 349.279C275.86 346.935 288.628 343.925 301.339 340.724C307.219 339.243 313.119 337.804 318.964 336.19C321.361 335.568 323.678 334.67 325.868 333.514C325.668 333.772 325.457 334.019 325.255 334.275C325.083 334.195 324.895 334.159 324.706 334.17C324.517 334.181 324.333 334.238 324.172 334.336C319.327 337.287 315.131 341.396 310.32 344.482C305.119 347.784 299.678 350.69 294.042 353.177C283.068 357.877 271.54 361.161 259.737 362.951C259.701 362.957 259.67 362.976 259.648 363.005C259.627 363.033 259.617 363.069 259.621 363.104C259.626 363.14 259.643 363.172 259.67 363.195C259.698 363.218 259.733 363.229 259.768 363.227C272.054 362.792 284.15 360.067 295.435 355.191ZM326.639 338.716C329.177 335.319 331.388 331.689 333.241 327.874C333.287 327.764 333.316 327.648 333.327 327.529C340.439 320.983 346.655 313.527 351.813 305.353C356.99 313.552 363.117 324.096 356.251 332.82C349.184 341.8 336.763 340.379 326.639 338.716ZM482.264 378.834C470.78 366.852 459.603 355.039 451.218 340.594C434.796 311.818 428.008 278.545 431.844 245.636C433.083 234.971 435.489 224.475 439.02 214.336C431.616 268.528 456.685 323.979 486.67 367.705C495.5 380.581 505.873 394.956 506.103 411.031C500.704 398.769 491.525 388.498 482.264 378.834ZM509.227 420.287C509.234 420.158 509.227 420.029 509.204 419.902C508.935 418.866 508.638 417.845 508.312 416.837C510.232 402.29 503.551 388.853 495.887 376.902C487.433 363.718 478.325 351.088 470.703 337.371C455.822 310.593 444.449 281.265 440.945 250.678C439.303 236.2 439.559 221.57 441.708 207.159C442.506 205.201 443.338 203.256 444.222 201.331C443.996 213.229 447.255 224.966 451.694 236.044C457.564 250.693 464.97 264.751 471.766 278.982C485.279 307.282 498.468 336.261 505.215 367.039C508.889 384.52 510.293 402.402 509.393 420.242C509.397 420.295 509.405 420.347 509.416 420.398L509.227 420.287ZM388.935 445.737C407.671 442.812 426.232 439.298 445.242 438.769C481.04 437.888 516.605 444.776 549.487 458.959C561.827 464.301 573.72 470.622 585.053 477.861C553.087 470.519 521.149 463.211 488.239 461.853C457.315 460.576 426.271 463.078 395.417 460.01C378.795 458.574 362.476 454.691 346.988 448.485C361.029 449.152 375.101 448.231 388.935 445.737ZM381.52 468.605C366.828 463.078 352.738 456.067 339.469 447.682C340.668 447.855 341.868 448.006 343.069 448.136C342.952 448.298 342.873 448.484 342.838 448.681C342.803 448.878 342.813 449.08 342.867 449.273C342.921 449.465 343.017 449.643 343.149 449.794C343.281 449.944 343.445 450.062 343.629 450.14C371.808 462.455 402.75 464.231 433.098 464.278C449.057 464.303 465.02 463.873 480.978 464.269C497.853 464.704 514.674 466.348 531.313 469.188C548.398 472.083 565.32 475.928 582.158 480.03C515.294 489.527 445.757 492.915 381.52 468.605ZM625.179 370.439C632.863 384.41 642.12 397.43 649.613 411.52C664.244 439.038 674.444 469.512 674.189 500.956C673.999 517.452 670.867 533.782 664.943 549.178C659.686 537.128 657.882 524.121 656.167 511.184C654.479 498.193 652.021 485.313 648.807 472.613C641.928 445.697 633.83 419.055 626.249 392.329C621.954 377.19 617.694 362.041 613.337 346.919C613.294 346.732 613.212 346.556 613.095 346.404C612.978 346.251 612.829 346.126 612.659 346.037C612.489 345.948 612.302 345.896 612.11 345.886C611.918 345.877 611.726 345.909 611.548 345.98C612.3 343.203 613.145 340.451 614.049 337.716C615.068 349.251 619.551 360.204 625.179 370.439ZM606.18 377.882C606.864 368.3 608.364 358.794 610.663 349.467C618.06 375.954 625.639 402.391 633.14 428.848C640.675 455.428 648.852 481.823 652.516 509.282C653.599 519.228 655.352 529.09 657.765 538.8C626.089 491.129 602.002 436.19 606.18 377.882Z" fill="#EAB4A9"/>
<path d="M531.534 625.696C531.629 625.65 531.714 625.584 531.782 625.504C535.515 625.523 539.242 625.514 542.962 625.477C557.533 625.344 572.127 624.839 586.68 624.655C576.721 627.759 567.471 632.796 559.461 639.479C544.953 650.892 531.896 664.174 518.102 676.396C509.356 684.126 500.454 691.675 491.253 698.809C490.929 699.016 490.689 699.332 490.577 699.7C490.465 700.068 490.488 700.463 490.642 700.816C490.796 701.168 491.071 701.454 491.417 701.622C491.763 701.79 492.157 701.828 492.529 701.731C527.821 692.655 556.74 669.308 582.321 644.311C588.345 638.409 594.231 632.342 599.908 626.112C600.128 626.123 600.331 626.117 600.533 626.112C600.732 626.124 600.93 626.093 601.116 626.022C601.302 625.951 601.47 625.841 601.61 625.7C601.75 625.559 601.859 625.39 601.928 625.204C601.998 625.018 602.027 624.819 602.014 624.62C619.593 624.575 637.147 625.979 654.495 628.818C656.548 629.186 658.586 629.605 660.624 630.024C635.474 631.146 613.456 651.068 594.08 665.531C585.87 671.979 576.832 677.297 567.209 681.342C566.847 681.461 566.54 681.704 566.341 682.028C566.142 682.353 566.065 682.737 566.124 683.113C566.183 683.489 566.373 683.832 566.661 684.081C566.949 684.329 567.316 684.467 567.697 684.47C577.644 684.863 587.606 684.367 597.465 682.988C607.905 680.977 617.884 677.054 626.898 671.416C643.896 661.541 663.274 650.996 675.084 634.622C675.257 634.678 675.433 634.724 675.611 634.76C675.891 634.856 676.195 634.853 676.473 634.75C676.75 634.648 676.984 634.452 677.133 634.196C689.419 637.874 701.223 643.004 712.294 649.476C716.223 651.787 719.487 645.604 715.624 643.224C698.32 632.973 679.286 625.974 659.464 622.573C659.43 622.574 659.412 622.524 659.361 622.508C658.817 622.387 658.271 622.199 657.727 622.045C650.601 606.173 634.035 597.932 619.339 590.148C600.856 580.353 582.363 570.559 563.859 560.765C553.394 555.25 542.928 549.712 532.462 544.152C532.115 543.98 531.718 543.937 531.343 544.031C530.967 544.124 530.636 544.347 530.41 544.661C530.183 544.975 530.075 545.359 530.105 545.745C530.135 546.131 530.3 546.494 530.572 546.769C556.301 577.391 589.443 600.914 626.84 615.095C631.412 616.832 636.03 618.381 640.678 619.795C630.159 618.638 619.588 618.024 609.163 617.844C592.942 617.531 576.729 618.147 560.518 618.83C556.063 600.49 542.028 586.456 527.185 575.704C509.089 562.623 488.399 553.005 473.162 536.318C471.928 534.983 470.218 536.751 470.863 538.152C485.802 570.483 510.899 597.044 542.331 613.79C545.876 615.672 549.538 617.467 553.264 619.124C540.712 619.626 528.143 620.111 515.579 620.107C515.56 620.057 515.576 620.006 515.54 619.939C508.758 602.352 491.986 592.107 476.994 582.101C458.89 570 440.775 557.899 422.648 545.798C421.496 545.035 420.221 546.622 420.857 547.686C440.329 580.794 472.091 607.986 508.805 620.067C504.97 620.017 501.152 619.949 497.331 619.78C489.789 619.44 482.276 618.862 474.804 617.963C474.736 617.737 474.615 617.532 474.451 617.364C462.594 605.857 446.889 597.61 431.68 591.545C415.851 585.399 399.396 581.005 382.61 578.441C373.13 576.919 363.61 575.854 354.048 575.078C352.473 574.934 351.981 577.396 353.349 578.035C384.371 592.614 411.032 618.522 446.256 622.773C454.439 623.961 462.784 623.295 470.675 620.825C487.232 623.664 503.987 625.185 520.785 625.373C492.839 633.815 469.922 653.574 446.33 670.159C438.738 675.593 430.834 680.579 422.661 685.091C422.37 685.278 422.147 685.553 422.025 685.876C421.904 686.2 421.89 686.554 421.986 686.886C422.083 687.217 422.284 687.509 422.559 687.717C422.835 687.926 423.17 688.039 423.516 688.041C458.551 684.882 491.344 669.448 516.106 644.463C521.907 638.779 527.08 632.487 531.534 625.696Z" fill="#94C9B7"/>
</g>
<defs>
<clipPath id="clip0_780_179">
<rect width="395.601" height="768.767" fill="white" transform="translate(0 287.051) rotate(-46.5193)"/>
</clipPath>
</defs>
</svg>
