<svg width="632" height="817" viewBox="0 0 632 817" fill="none" xmlns="http://www.w3.org/2000/svg">
<g opacity="0.3" clip-path="url(#clip0_780_189)">
<path d="M-87.1843 631.348C-73.5133 605.859 -57.5311 581.68 -39.4387 559.114C-37.7378 556.955 -36.0049 554.82 -34.2704 552.687C-34.4099 552.652 -34.5397 552.586 -34.6501 552.494C-34.7605 552.402 -34.8486 552.286 -34.9077 552.155C-47.9797 525.5 -48.6809 493.715 -42.4155 465.128C-38.94 449.713 -33.7146 434.745 -26.8411 420.515C-19.6775 406.287 -11.7547 392.453 -3.10684 379.074C6.29138 363.786 15.4079 346.834 13.6131 328.291C13.4344 326.445 16.1051 325.471 16.8572 327.344C40.4765 386.163 25.9742 451.665 -2.90396 505.784C-9.03631 517.276 -15.7996 528.41 -22.9841 539.268C-9.86977 524.173 4.04139 509.789 18.6901 496.178C21.5173 493.551 24.3731 490.954 27.2575 488.39C27.2478 488.209 27.2825 488.03 27.3587 487.866C27.4347 487.703 27.5498 487.56 27.6938 487.451C29.602 485.902 31.5447 484.397 33.5076 482.916C50.5292 468.187 68.439 454.517 87.1359 441.983C97.8683 434.795 108.843 427.99 119.942 421.389C119.794 421.31 119.668 421.195 119.575 421.056C119.483 420.916 119.426 420.756 119.41 420.589C114.983 390.447 122.914 358.912 133.232 330.746C144.044 301.228 158.795 273.495 171.873 244.975C179.353 228.664 185.944 210.911 182.646 192.716C182.293 190.766 184.956 190.203 185.813 191.791C201.201 221.041 206.774 254.464 201.709 287.125C199.32 303.374 194.396 319.148 187.118 333.871C179.509 348.639 169.684 362.156 157.986 373.952C145.402 387.074 131.514 400.298 125.778 417.949C140.908 409.08 156.236 400.538 171.509 391.937C205.347 372.88 239.009 353.419 273.249 335.089L273.261 335.086C272.97 334.735 272.668 334.403 272.395 334.022C265.465 324.379 271.115 311.836 278.124 303.668C274.891 298.449 271.993 293.03 269.448 287.443C261.723 270.598 257.356 252.407 256.592 233.89C255.027 193.286 273.303 156.897 293.274 122.764C305.154 102.46 317.642 82.4501 327.34 60.9709C327.467 60.6741 327.668 60.4149 327.923 60.2182C328.179 60.0216 328.481 59.8942 328.8 59.8482C329.12 59.8022 329.446 59.8393 329.746 59.9558C330.047 60.0724 330.313 60.2644 330.518 60.5135C349.121 83.5675 359.306 112.277 359.389 141.901C386.552 124.253 417.953 114.217 450.316 112.84C455.264 112.63 460.213 112.62 465.165 112.808C465.525 112.858 465.864 113.013 466.138 113.252C466.413 113.491 466.612 113.804 466.712 114.155C466.812 114.505 466.808 114.876 466.701 115.224C466.593 115.572 466.387 115.882 466.107 116.115C452.162 127.497 448.2 146.237 447.578 163.394C446.81 184.57 450.525 205.95 444.135 226.602C454.955 227.075 465.778 227.879 476.593 228.062C498.506 228.432 521.707 225.982 540.262 213.311C540.553 213.095 540.901 212.968 541.263 212.944C541.625 212.921 541.986 213.002 542.303 213.178C542.62 213.355 542.879 213.619 543.05 213.939C543.221 214.259 543.296 214.621 543.266 214.982C542.877 238.911 542.267 263.637 533.395 286.208C525.936 304.689 512.975 320.43 496.268 331.297C495.276 331.957 494.253 332.532 493.248 333.159C513.44 340.015 533.276 348.227 553.047 356.157C553.376 356.302 553.657 356.538 553.855 356.837C554.054 357.136 554.162 357.486 554.168 357.845C554.173 358.204 554.075 358.557 553.886 358.863C553.696 359.168 553.423 359.412 553.098 359.566C519.001 378.117 481.005 388.351 442.203 389.435C406.577 390.425 368.984 384.516 337.638 366.768C325.728 360.277 315.127 351.631 306.374 341.269C296.031 343.191 282.989 344.478 274.857 336.794C274.751 337.076 274.552 337.313 274.294 337.468C244.76 354.95 214.654 371.496 184.769 388.368C156.033 404.591 126.973 420.368 99.1818 438.192C85.6807 446.851 72.5828 456.083 59.8878 465.888C79.6275 455.117 100.738 447.074 122.641 441.981C139.974 437.913 157.693 435.714 175.496 435.423C194.367 435.464 213.196 437.224 231.748 440.683C254.001 444.384 276.807 448.1 299.135 442.87C299.497 442.823 299.864 442.894 300.182 443.074C300.499 443.253 300.75 443.531 300.896 443.865C301.042 444.199 301.076 444.572 300.992 444.927C300.909 445.282 300.712 445.6 300.432 445.834C243.416 485.174 172.209 494.166 104.559 489.545C83.3012 488.094 62.2146 485.329 41.2077 481.811C40.9579 481.768 40.7233 481.661 40.5265 481.501C14.842 503.167 -8.82122 527.122 -30.1712 553.07C-50.4226 578.163 -68.8362 604.685 -85.2686 632.43C-85.9118 633.493 -87.7693 632.464 -87.1843 631.348ZM329.453 65.206C312.942 100.652 289.074 132.214 273.691 168.225C265.778 185.886 261.214 204.863 260.23 224.19C259.681 242.713 262.882 261.155 269.64 278.41C275.883 293.831 284.643 308.109 295.564 320.659C295.452 320.346 295.366 320.032 295.257 319.719C277.887 297.095 269.24 266.137 274.141 237.944C274.149 237.885 274.18 237.833 274.227 237.797C274.274 237.761 274.332 237.745 274.391 237.752C274.449 237.758 274.503 237.788 274.54 237.833C274.577 237.879 274.595 237.937 274.59 237.996C272.983 252.917 274.302 268.009 278.476 282.425C281.781 293.149 286.688 303.313 293.03 312.571C291.779 308.199 290.695 303.781 289.88 299.306C288.054 289.149 287.309 278.827 287.655 268.514C288.392 247.533 293.315 226.911 302.134 207.859C310.954 188.808 323.492 171.711 339.012 157.574C344.519 152.6 350.356 148.004 356.483 143.818C356.249 143.642 356.059 143.413 355.929 143.151C355.799 142.888 355.733 142.599 355.735 142.306C355.669 114.419 346.434 87.3272 329.453 65.206ZM440.636 225.378C447.361 203.836 442.605 181.254 444.074 159.191C445.102 143.745 449.263 127.638 460.288 116.435C422.091 115.926 384.756 127.787 353.856 150.245C320.956 174.526 299.046 210.878 292.942 251.309C290.196 269.366 290.901 287.781 295.021 305.575C294.767 304.184 294.541 302.809 294.342 301.506C293.644 296.885 293.406 292.206 293.634 287.538C294.022 277.954 296.581 268.584 301.119 260.134C301.36 259.694 302.075 259.948 301.863 260.435C298.096 268.916 295.917 278.017 295.432 287.285C295.228 291.942 295.505 296.608 296.256 301.209C296.834 304.184 297.596 307.121 298.537 310.002C302.698 275.118 318.12 242.543 342.464 217.214C349.753 209.499 357.956 202.703 366.891 196.976C367.194 196.788 367.54 197.189 367.245 197.422C352.523 208.663 339.593 222.072 328.896 237.192C318.488 252.312 310.691 269.07 305.828 286.769C303.563 295.149 301.998 303.701 301.148 312.34C315.438 285.065 335.785 260.311 362.155 244.193C377.317 234.833 394.385 228.992 412.103 227.101C421.592 226.231 431.129 226.024 440.647 226.482C440.53 226.124 440.526 225.738 440.636 225.378ZM488.733 331.631L488.738 331.633C503.068 323.447 515.096 311.773 523.707 297.695C535.498 277.789 538.248 254.158 539.148 231.469C539.323 227.054 539.419 222.636 539.5 218.218C506.053 238.838 464.766 229.564 427.637 229.964C408.47 229.838 389.539 234.199 372.359 242.698C356.777 250.89 342.83 261.872 331.213 275.1C318.716 289.212 308.193 304.954 299.931 321.897C300.214 322.538 300.53 323.155 300.851 323.767C303.373 323.322 306.108 323.446 308.64 323.175C311.701 322.847 314.74 322.368 317.758 321.737C323.851 320.475 329.804 318.618 335.534 316.192C346.675 311.133 356.967 304.382 366.044 296.177C366.109 296.129 366.188 296.106 366.268 296.111C366.348 296.116 366.424 296.15 366.482 296.206C366.539 296.262 366.575 296.337 366.582 296.417C366.589 296.497 366.568 296.577 366.521 296.642C358.298 306.073 348.003 313.474 336.444 318.264C330.856 320.729 325.048 322.659 319.096 324.028C315.936 324.75 312.741 325.308 309.523 325.699C307.175 326.079 304.803 326.3 302.425 326.361C302.445 326.388 302.46 326.42 302.48 326.447C303.245 327.481 304.163 328.394 305.202 329.153C305.46 329.019 305.75 328.961 306.04 328.984C331.626 330.975 357.365 328.643 382.176 322.086C407.194 315.276 431.517 306.13 454.823 294.768C468.084 288.517 481.143 281.831 494.103 274.983C494.221 274.92 494.298 275.106 494.186 275.17C448.987 300.877 400.901 325.01 348.646 331.453C337.04 332.93 325.326 333.375 313.641 332.783C314.621 333.048 315.602 333.301 316.566 333.551C328.701 336.697 340.851 339.804 353.1 342.483C395.979 351.86 442.126 355.633 482.473 335.072C483.857 334.367 485.206 333.591 486.563 332.831C486.615 332.602 486.714 332.388 486.855 332.2C486.996 332.013 487.174 331.858 487.379 331.744C487.584 331.631 487.811 331.562 488.044 331.543C488.277 331.523 488.512 331.553 488.733 331.631ZM335.604 355.19C330.224 352.914 325.035 350.212 320.085 347.11C317.708 345.632 315.118 344.053 312.647 342.315C319.239 349.498 326.77 355.76 335.037 360.929C349.5 369.672 365.277 376.031 381.76 379.761C418.213 388.167 456.129 387.913 492.466 379.02C511.738 374.361 530.361 367.341 547.913 358.12C528.491 350.431 508.817 343.343 489.468 335.488C452.812 356.56 408.928 356.704 368.079 349.279C355.179 346.935 342.411 343.924 329.7 340.724C323.82 339.243 317.92 337.804 312.075 336.19C309.678 335.568 307.361 334.67 305.171 333.514C305.371 333.772 305.582 334.019 305.784 334.275C305.956 334.195 306.144 334.159 306.333 334.17C306.522 334.18 306.706 334.238 306.867 334.336C311.712 337.287 315.908 341.396 320.719 344.482C325.92 347.784 331.361 350.69 336.997 353.177C347.971 357.876 359.499 361.161 371.303 362.951C371.338 362.957 371.369 362.976 371.391 363.005C371.412 363.033 371.422 363.069 371.418 363.104C371.414 363.139 371.396 363.172 371.369 363.195C371.341 363.218 371.306 363.229 371.271 363.227C358.985 362.792 346.889 360.067 335.604 355.19ZM304.4 338.716C301.862 335.319 299.651 331.689 297.798 327.874C297.752 327.764 297.723 327.648 297.712 327.529C290.6 320.983 284.384 313.527 279.226 305.353C274.049 313.552 267.922 324.096 274.788 332.82C281.855 341.8 294.276 340.379 304.4 338.716ZM148.775 378.834C160.259 366.852 171.436 355.039 179.821 340.594C196.243 311.818 203.032 278.545 199.195 245.636C197.956 234.971 195.55 224.475 192.019 214.336C199.423 268.528 174.354 323.979 144.369 367.704C135.539 380.581 125.166 394.955 124.936 411.031C130.335 398.769 139.514 388.498 148.775 378.834ZM121.813 420.287C121.805 420.158 121.812 420.029 121.835 419.902C122.104 418.866 122.401 417.844 122.727 416.837C120.807 402.29 127.488 388.853 135.152 376.901C143.606 363.718 152.714 351.087 160.336 337.371C175.217 310.593 186.59 281.265 190.094 250.678C191.736 236.2 191.48 221.57 189.331 207.159C188.533 205.201 187.701 203.256 186.817 201.331C187.043 213.229 183.784 224.966 179.345 236.044C173.475 250.693 166.069 264.751 159.273 278.982C145.76 307.282 132.571 336.261 125.824 367.039C122.15 384.52 120.746 402.402 121.646 420.242C121.642 420.295 121.634 420.347 121.623 420.398L121.813 420.287ZM242.104 445.737C223.368 442.812 204.807 439.298 185.798 438.769C149.999 437.888 114.434 444.776 81.5526 458.959C69.212 464.301 57.3187 470.622 45.9863 477.861C77.9518 470.519 109.89 463.21 142.8 461.853C173.724 460.576 204.768 463.078 235.622 460.01C252.244 458.574 268.563 454.69 284.051 448.485C270.01 449.152 255.938 448.23 242.104 445.737ZM249.519 468.605C264.211 463.078 278.301 456.067 291.57 447.682C290.371 447.855 289.171 448.006 287.97 448.135C288.087 448.298 288.166 448.484 288.201 448.681C288.236 448.878 288.226 449.08 288.172 449.273C288.119 449.465 288.022 449.643 287.89 449.794C287.758 449.944 287.594 450.062 287.41 450.14C259.231 462.455 228.29 464.231 197.942 464.278C181.982 464.303 166.019 463.873 150.061 464.269C133.187 464.704 116.365 466.348 99.7258 469.188C82.6413 472.083 65.7193 475.928 48.8815 480.03C115.745 489.527 185.282 492.915 249.519 468.605ZM5.85964 370.439C-1.82421 384.41 -11.0813 397.43 -18.5736 411.52C-33.205 439.038 -43.4045 469.512 -43.1504 500.956C-42.9596 517.452 -39.8283 533.782 -33.9036 549.178C-28.6474 537.128 -26.8433 524.12 -25.1279 511.184C-23.4402 498.193 -20.9824 485.313 -17.7676 472.613C-10.8886 445.697 -2.79119 419.055 4.79056 392.329C9.08533 377.19 13.3448 362.04 17.7024 346.919C17.7447 346.732 17.8273 346.556 17.9443 346.404C18.0612 346.251 18.2099 346.126 18.38 346.037C18.55 345.947 18.7375 345.896 18.9293 345.886C19.1211 345.877 19.3128 345.909 19.4911 345.98C18.7392 343.202 17.8943 340.451 16.9904 337.715C15.9712 349.251 11.4885 360.204 5.85964 370.439ZM24.8592 377.882C24.1749 368.3 22.6751 358.794 20.3759 349.467C12.9788 375.954 5.39991 402.39 -2.10069 428.848C-9.63613 455.428 -17.8133 481.823 -21.4766 509.282C-22.5597 519.228 -24.3134 529.09 -26.7258 538.8C4.95005 491.129 29.0373 436.19 24.8592 377.882Z" fill="#EAB4A9"/>
<path d="M99.505 625.696C99.4098 625.65 99.3253 625.584 99.2569 625.504C95.524 625.523 91.7975 625.514 88.0774 625.477C73.5065 625.344 58.9117 624.839 44.359 624.655C54.3183 627.759 63.5677 632.796 71.5778 639.479C86.086 650.892 99.143 664.174 112.937 676.396C121.683 684.126 130.586 691.675 139.786 698.809C140.111 699.016 140.35 699.332 140.462 699.7C140.574 700.068 140.551 700.463 140.397 700.816C140.243 701.168 139.968 701.454 139.622 701.622C139.276 701.79 138.882 701.828 138.51 701.731C103.218 692.655 74.2994 669.308 48.7182 644.311C42.6936 638.409 36.8084 632.342 31.1307 626.112C30.9109 626.123 30.7083 626.117 30.5057 626.112C30.3073 626.123 30.1087 626.093 29.923 626.022C29.7373 625.951 29.5689 625.841 29.4289 625.7C29.2889 625.559 29.1805 625.39 29.1109 625.204C29.0414 625.018 29.0122 624.819 29.0255 624.62C11.4459 624.575 -6.10747 625.979 -23.4563 628.818C-25.5093 629.186 -27.5472 629.605 -29.5847 630.024C-4.43451 631.146 17.5832 651.068 36.9587 665.531C45.1688 671.979 54.2066 677.297 63.8304 681.342C64.1919 681.46 64.4994 681.704 64.6981 682.028C64.8968 682.353 64.9736 682.737 64.915 683.113C64.8563 683.489 64.6659 683.832 64.3778 684.081C64.0897 684.329 63.7227 684.467 63.3422 684.47C53.3951 684.863 43.4328 684.367 33.5738 682.988C23.1336 680.977 13.155 677.054 4.14073 671.416C-12.8572 661.541 -32.2353 650.996 -44.0447 634.622C-44.2177 634.678 -44.3939 634.724 -44.5722 634.76C-44.8519 634.856 -45.1564 634.853 -45.4338 634.75C-45.7113 634.647 -45.9445 634.452 -46.0938 634.196C-58.3799 637.874 -70.1836 643.003 -81.2551 649.476C-85.1839 651.787 -88.4482 645.604 -84.5851 643.224C-67.2809 632.973 -48.2474 625.974 -28.4245 622.573C-28.3908 622.574 -28.3726 622.524 -28.3216 622.508C-27.7779 622.387 -27.2324 622.199 -26.6881 622.045C-19.5624 606.173 -2.99609 597.932 11.7006 590.148C30.1826 580.353 48.676 570.559 67.1805 560.764C77.6455 555.25 88.1111 549.712 98.5773 544.152C98.9243 543.98 99.3209 543.937 99.6965 544.031C100.072 544.124 100.403 544.347 100.629 544.661C100.856 544.975 100.964 545.359 100.934 545.745C100.904 546.131 100.739 546.494 100.467 546.769C74.7385 577.391 41.5963 600.914 4.19906 615.095C-0.373191 616.832 -4.99069 618.381 -9.63886 619.795C0.879582 618.638 11.4507 618.024 21.8758 617.844C38.0967 617.531 54.3099 618.147 70.5212 618.83C74.9764 600.49 89.0112 586.456 103.854 575.704C121.95 562.622 142.64 553.005 157.877 536.318C159.111 534.983 160.821 536.751 160.176 538.152C145.237 570.483 120.14 597.044 88.7084 613.79C85.1626 615.672 81.501 617.467 77.7754 619.124C90.3267 619.626 102.896 620.111 115.46 620.107C115.479 620.057 115.463 620.006 115.499 619.939C122.281 602.352 139.053 592.107 154.045 582.101C172.149 570 190.265 557.899 208.391 545.798C209.543 545.035 210.818 546.622 210.182 547.686C190.71 580.794 158.948 607.986 122.234 620.067C126.069 620.016 129.887 619.949 133.709 619.78C141.25 619.44 148.764 618.862 156.235 617.962C156.303 617.737 156.424 617.532 156.589 617.364C168.445 605.857 184.15 597.61 199.359 591.545C215.188 585.399 231.643 581.005 248.429 578.441C257.91 576.919 267.429 575.854 276.991 575.078C278.566 574.934 279.058 577.396 277.69 578.035C246.668 592.614 220.007 618.522 184.783 622.773C176.6 623.961 168.255 623.295 160.364 620.825C143.808 623.664 127.052 625.185 110.254 625.373C138.2 633.815 161.117 653.574 184.709 670.159C192.301 675.593 200.205 680.579 208.378 685.091C208.669 685.278 208.892 685.553 209.014 685.876C209.135 686.2 209.149 686.554 209.053 686.886C208.956 687.217 208.756 687.509 208.48 687.717C208.204 687.926 207.869 688.039 207.523 688.041C172.488 684.882 139.695 669.448 114.933 644.462C109.132 638.779 103.959 632.487 99.505 625.696Z" fill="#94C9B7"/>
</g>
<defs>
<clipPath id="clip0_780_189">
<rect width="395.601" height="768.767" fill="white" transform="matrix(-0.68811 -0.725607 -0.725607 0.68811 631.039 287.05)"/>
</clipPath>
</defs>
</svg>
